<mxfile host="app.diagrams.net" modified="2023-09-10T01:20:24.004Z" agent="Mozilla/5.0 (X11; Linux x86_64) AppleWebKit/537.36 (KHTML, like Gecko) Chrome/115.0.0.0 Safari/537.36" version="21.7.2" etag="KyNEHVGAZjF9e7wJhEPc" type="github">
  <diagram name="Page-1" id="lB2xxsjtQf1mDSZb9pxe">
    <mxGraphModel>
      <root>
        <mxCell id="0" />
        <mxCell id="1" parent="0" />
      </root>
    </mxGraphModel>
  </diagram>
</mxfile>
